<svg xmlns="http://www.w3.org/2000/svg" xmlns:xlink="http://www.w3.org/1999/xlink" version="1.1" x="0px" y="0px" viewBox="0 0 60.08 50" enable-background="new 0 0 60.08 40" xml:space="preserve"><path fill="#000000" d="M60.05,0.83C60.05,0.83,60.05,0.82,60.05,0.83c-0.02-0.13-0.07-0.25-0.13-0.35c0,0,0,0,0,0c0,0,0,0,0,0  c-0.06-0.1-0.14-0.18-0.23-0.25c-0.02-0.01-0.04-0.03-0.06-0.04c-0.08-0.05-0.15-0.09-0.24-0.12c-0.05-0.02-0.11-0.03-0.17-0.03  C59.17,0.02,59.13,0,59.08,0h0c-0.04,0-0.07,0-0.09,0.01c-0.01,0-0.02,0-0.03,0c-0.01,0-0.02,0-0.03,0c-0.03,0-0.05,0.01-0.08,0.01  l-58.05,12c-0.41,0.09-0.73,0.42-0.79,0.84s0.15,0.83,0.52,1.03l16.63,8.77l2.92,16.19c0,0.01,0,0.03,0,0.04  c-0.01,0.08-0.01,0.16,0,0.24c0,0.04,0.01,0.08,0.02,0.12c0.02,0.09,0.06,0.18,0.11,0.27c0.01,0.02,0.01,0.04,0.02,0.05  c0,0.01,0.01,0.01,0.01,0.01c0.01,0.02,0.03,0.03,0.05,0.05c0.05,0.06,0.1,0.11,0.15,0.16c0.01,0.01,0.02,0.02,0.02,0.03  c0.01,0.01,0.03,0.01,0.05,0.02c0.06,0.04,0.12,0.07,0.19,0.1c0.03,0.01,0.05,0.02,0.08,0.03c0.09,0.03,0.18,0.04,0.28,0.04  c0,0,0,0,0,0c0,0,0,0,0,0c0,0,0,0,0,0c0,0,0.01,0,0.01,0c0.02,0,0.03,0,0.05,0c0.28,0,0.53-0.12,0.71-0.32l11.08-7.39l11.6,7.54  c0.16,0.11,0.35,0.16,0.54,0.16c0.11,0,0.21-0.02,0.32-0.05c0.29-0.1,0.52-0.32,0.62-0.6L59.94,1.52c0.09-0.15,0.15-0.33,0.15-0.52  C60.08,0.94,60.06,0.89,60.05,0.83z M48.46,7.55L24.47,25.19c-0.04,0.03-0.07,0.06-0.1,0.1c-0.01,0.01-0.03,0.02-0.04,0.04  c-0.02,0.02-0.04,0.05-0.06,0.07c-0.02,0.02-0.03,0.05-0.05,0.07c-0.04,0.06-0.07,0.12-0.09,0.19c0,0.01-0.01,0.02-0.02,0.04  c0,0,0,0.01-0.01,0.01l-2.75,8.94l-2.18-12.09L48.46,7.55z M22.91,36.57l2.73-9l4.24,2.76l1.21,0.79l-4.12,2.75L22.91,36.57z   M52.04,3.47l-33.97,17.4L3.93,13.42L52.04,3.47z M44.56,37.48l-15.4-10.01l-2.33-1.52L56.97,3.78L44.56,37.48z"/><text x="0" y="55" fill="#000000" font-size="5px" font-weight="bold" font-family="'Helvetica Neue', Helvetica, Arial-Unicode, Arial, Sans-serif"></text><text x="0" y="60" fill="#000000" font-size="5px" font-weight="bold" font-family="'Helvetica Neue', Helvetica, Arial-Unicode, Arial, Sans-serif">from the Noun Project</text></svg>